<svg xmlns="http://www.w3.org/2000/svg" viewBox="0 0 4.37 4.11"><defs><style>.a{fill:#f5ea14;}.b{opacity:0.7;}.c{fill:#5c9ad2;}</style></defs><title>zone__one_to_one</title><circle class="a" cx="1.5" cy="1.5" r="1.39"/><path d="M2.82,1.66a1.28,1.28,0,0,1,0,2.56,1.28,1.28,0,0,1,0-2.56m0-.22a1.5,1.5,0,1,0,1.5,1.5,1.5,1.5,0,0,0-1.5-1.5Z" transform="translate(-1.32 -1.44)"/><g class="b"><circle class="c" cx="2.87" cy="2.61" r="1.39"/><path d="M4.18,2.78a1.28,1.28,0,1,1,0,2.56,1.28,1.28,0,0,1,0-2.56m0-.22a1.5,1.5,0,1,0,1.5,1.5,1.5,1.5,0,0,0-1.5-1.5Z" transform="translate(-1.32 -1.44)"/></g></svg>