<svg xmlns="http://www.w3.org/2000/svg" viewBox="0 0 4.66 6.22"><defs><style>.a{fill:#f5ea14;}.b{opacity:0.7;}.c{fill:#5c9ad2;}</style></defs><title>zone__one_to_many</title><circle class="a" cx="1.5" cy="3.09" r="1.39"/><path d="M2.67,2.2A1.28,1.28,0,1,1,1.39,3.48,1.28,1.28,0,0,1,2.67,2.2m0-.22a1.5,1.5,0,1,0,1.5,1.5A1.5,1.5,0,0,0,2.67,2Z" transform="translate(-1.17 -0.39)"/><g class="b"><path class="c" d="M4.33,6.5A1.39,1.39,0,1,1,5.72,5.11,1.39,1.39,0,0,1,4.33,6.5Z" transform="translate(-1.17 -0.39)"/><path d="M4.33,3.83A1.28,1.28,0,1,1,3.05,5.11,1.28,1.28,0,0,1,4.33,3.83m0-.22a1.5,1.5,0,1,0,1.5,1.5,1.5,1.5,0,0,0-1.5-1.5Z" transform="translate(-1.17 -0.39)"/></g><g class="b"><circle class="c" cx="3.16" cy="1.5" r="1.39"/><path d="M4.33.61A1.28,1.28,0,1,1,3.05,1.89,1.28,1.28,0,0,1,4.33.61m0-.22a1.5,1.5,0,1,0,1.5,1.5A1.5,1.5,0,0,0,4.33.39Z" transform="translate(-1.17 -0.39)"/></g></svg>