<svg xmlns="http://www.w3.org/2000/svg" viewBox="0 0 6.23 6.34"><defs><style>.a{fill:#f5ea14;}.b{opacity:0.7;}.c{fill:#5c9ad2;}</style></defs><title>zone__many_to_many</title><path class="a" d="M3.5,6.56A1.39,1.39,0,1,1,4.89,5.17,1.39,1.39,0,0,1,3.5,6.56Z" transform="translate(-0.39 -0.33)"/><path d="M3.5,3.89A1.28,1.28,0,1,1,2.22,5.17,1.28,1.28,0,0,1,3.5,3.89m0-.22A1.5,1.5,0,1,0,5,5.17a1.5,1.5,0,0,0-1.5-1.5Z" transform="translate(-0.39 -0.33)"/><circle class="a" cx="3.11" cy="1.5" r="1.39"/><path d="M3.5.55A1.28,1.28,0,1,1,2.22,1.83,1.28,1.28,0,0,1,3.5.55m0-.22A1.5,1.5,0,1,0,5,1.83,1.5,1.5,0,0,0,3.5.33Z" transform="translate(-0.39 -0.33)"/><g class="b"><circle class="c" cx="4.73" cy="3.17" r="1.39"/><path d="M5.12,2.22A1.28,1.28,0,1,1,3.84,3.5,1.28,1.28,0,0,1,5.12,2.22m0-.22a1.5,1.5,0,1,0,1.5,1.5A1.5,1.5,0,0,0,5.12,2Z" transform="translate(-0.39 -0.33)"/></g><g class="b"><circle class="c" cx="1.5" cy="3.17" r="1.39"/><path d="M1.89,2.22A1.28,1.28,0,1,1,.61,3.5,1.28,1.28,0,0,1,1.89,2.22m0-.22a1.5,1.5,0,1,0,1.5,1.5A1.5,1.5,0,0,0,1.89,2Z" transform="translate(-0.39 -0.33)"/></g></svg>